# xmcd
#
# Track frame offsets: 
#        150
#        10388
#        22313
#        33400
#        44750
#        55075
#        64625
#        73388
#        82025
#        94275
#        104838
#
# Disc length: 1537 seconds
#
# Revision: 0
# Processed by: cddbd v1.5.1PL0 Copyright (c) Steve Scherf et al.
# Submitted via: ExactAudioCopy v0.95a5
#
DISCID=a605ff0b
DTITLE=Johnny Cash - Country Ballads
DYEAR=1900
DGENRE=
TTITLE0=Ballad Of A Teenage Queen
TTITLE1=I Walk The Line
TTITLE2=Cry Cry Cry
TTITLE3=Belshaza
TTITLE4=Get Rhythm
TTITLE5=Down The Street To 301
TTITLE6=I Forgot To Remember To Forget
TTITLE7=I Guess Things Happen That Way
TTITLE8=That's A Lot
TTITLE9=Straight A's In Love
TTITLE10=The Ways Of A Woman In Love
EXTD=
EXTT0=
EXTT1=
EXTT2=
EXTT3=
EXTT4=
EXTT5=
EXTT6=
EXTT7=
EXTT8=
EXTT9=
EXTT10=
PLAYORDER=
